<svg width="40" height="40" xmlns="http://www.w3.org/2000/svg" xmlns:svg="http://www.w3.org/2000/svg" xmlns:xlink="http://www.w3.org/1999/xlink">
 <!-- Created with SVG-edit - https://github.com/SVG-Edit/svgedit-->
 <defs>
  <symbol id="svg_2" viewBox="0 0 40 40" height="40" width="40" xmlns="http://www.w3.org/2000/svg">
   <path fill="url(#svg_1)" d="m20,40c-11.02941,0 -20,-8.9706 -20,-20c0,-11.02941 8.97059,-20 20,-20c11.0294,0 20,8.97059 20,20c0,11.0294 -8.9706,20 -20,20zm0,-37.64706c-9.7353,0 -17.64706,7.91176 -17.64706,17.64706c0,9.7353 7.91176,17.6471 17.64706,17.6471c9.7353,0 17.6471,-7.9118 17.6471,-17.6471c0,-9.7353 -7.9118,-17.64706 -17.6471,-17.64706z"/>
   <defs>
    <linearGradient gradientUnits="userSpaceOnUse" y2="40" x2="20" y1="0" x1="20" id="svg_1">
     <stop stop-color="#BC9CFF"/>
     <stop stop-color="#8BA4F9" offset="1"/>
    </linearGradient>
   </defs>
  </symbol>
  <symbol id="svg_6" viewBox="0 0 10 7" height="7" width="10" xmlns="http://www.w3.org/2000/svg">
   <path fill="url(#svg_5)" d="m9.58835,1.47042c0,0.64705 -0.52941,1.17647 -1.17647,1.17647c-2.79412,0 -5.29412,1.41176 -6.76471,3.55882c-0.32353,-0.82353 -0.70588,-1.58823 -1.17647,-2.29412c1.94118,-2.23529 4.79412,-3.61765 7.94118,-3.61765c0.64706,0.00001 1.17647,0.52942 1.17647,1.17648z"/>
   <defs>
    <linearGradient gradientUnits="userSpaceOnUse" y2="6.20571" x2="5.02953" y1="0.29395" x1="5.02953" id="svg_5">
     <stop stop-color="#6FCF97"/>
     <stop stop-color="#66D2EA" offset="1"/>
    </linearGradient>
   </defs>
  </symbol>
  <symbol id="svg_10" viewBox="0 0 13 13" height="13" width="13" xmlns="http://www.w3.org/2000/svg">
   <path fill="url(#svg_9)" d="m11.0003,12.0587c-0.647,0 -1.17643,-0.5295 -1.17643,-1.1765c0,-4.52943 -3.70588,-8.23531 -8.23529,-8.23531c-0.64706,0 -1.17647,-0.52942 -1.17647,-1.17647c0,-0.64706 0.52941,-1.17647 1.17647,-1.17647c5.85294,0 10.58822,4.73529 10.58822,10.58825c0,0.647 -0.5294,1.1765 -1.1765,1.1765z"/>
   <defs>
    <linearGradient gradientUnits="userSpaceOnUse" y2="12.0587" x2="6.29446" y1="0.29395" x1="6.29446" id="svg_9">
     <stop stop-color="#BC9CFF"/>
     <stop stop-color="#8BA4F9" offset="1"/>
    </linearGradient>
   </defs>
  </symbol>
 </defs>
 <g class="layer">
  <title>Layer 1</title>
  <g id="svg_4"/>
  <use x="-23.09482" y="-7.51626" transform="matrix(0.971758585841923,0,0,0.9511728106584465,43.18275456922855,19.29523104771908) " xlink:href="#svg_6" id="svg_7"/>
  <g id="svg_8"/>
  <use x="-7.2493" y="-13.16325" transform="matrix(1.1211939423215604,0,0,1.1076387867399498,16.040782211632607,27.50529538097198) " xlink:href="#svg_10" id="svg_11"/>
  <use x="0" y="0" transform="matrix(0.9966734160809484,0,0,0.9951803336294133,0.061159064052705436,0.07018486875110908) " xlink:href="#svg_2" id="svg_13"/>
  <g id="svg_14"/>
 </g>
</svg>